<?xml version="1.0" encoding="UTF-8" standalone="no"?>
<!-- Created with Inkscape (http://www.inkscape.org/) -->

<svg
   xmlns:dc="http://purl.org/dc/elements/1.1/"
   xmlns:cc="http://creativecommons.org/ns#"
   xmlns:rdf="http://www.w3.org/1999/02/22-rdf-syntax-ns#"
   xmlns:svg="http://www.w3.org/2000/svg"
   xmlns="http://www.w3.org/2000/svg"
   xmlns:sodipodi="http://sodipodi.sourceforge.net/DTD/sodipodi-0.dtd"
   xmlns:inkscape="http://www.inkscape.org/namespaces/inkscape"
   version="1.1"
   width="150"
   height="150"
   id="svg3002"
   inkscape:version="0.48.4 r9939"
   sodipodi:docname="code_briefcase.svg">
  <sodipodi:namedview
     pagecolor="#ffffff"
     bordercolor="#666666"
     borderopacity="1"
     objecttolerance="10"
     gridtolerance="10"
     guidetolerance="10"
     inkscape:pageopacity="0"
     inkscape:pageshadow="2"
     inkscape:window-width="1535"
     inkscape:window-height="876"
     id="namedview3006"
     showgrid="false"
     inkscape:zoom="2.2291063"
     inkscape:cx="133.93643"
     inkscape:cy="140.90305"
     inkscape:window-x="1505"
     inkscape:window-y="24"
     inkscape:window-maximized="1"
     inkscape:current-layer="svg3002" />
  <defs
     id="defs3004" />
  <metadata
     id="metadata3007">
    <rdf:RDF>
      <cc:Work
         rdf:about="">
        <dc:format>image/svg+xml</dc:format>
        <dc:type
           rdf:resource="http://purl.org/dc/dcmitype/StillImage" />
        <dc:title></dc:title>
      </cc:Work>
    </rdf:RDF>
  </metadata>
  <g
     transform="matrix(0.08,0,0,0.08,0.7183076,67.538698)"
     id="layer1">
    <path
       d="m 227.15645,-393.01337 1409.97285,0 c 88.3395,0 159.4576,71.1181 159.4576,159.45763 l 0,953.58926 c 0,88.33953 -71.1181,159.45763 -159.4576,159.45763 l -1409.97285,0 c -88.33953,0 -159.457628,-71.1181 -159.457628,-159.45763 l 0,-953.58926 c 0,-88.33953 71.118098,-159.45763 159.457628,-159.45763 z"
       id="rect3005"
       style="fill:#1a237e;fill-opacity:1"
       inkscape:connector-curvature="0" />
    <path
       d="m 1225.2449,-666.19531 13.9722,0 c 39.2606,0 70.8675,45.01681 70.8675,100.93456 l 0,152.49925 c 0,55.91775 -31.6069,100.93457 -70.8675,100.93457 l -13.9722,0 c -39.2607,0 -70.8676,-45.01682 -70.8676,-100.93457 l 0,-152.49925 c 0,-55.91775 31.6069,-100.93456 70.8676,-100.93456 z"
       id="rect3556-8"
       style="fill:#1a237e;fill-opacity:1"
       inkscape:connector-curvature="0" />
    <path
       d="m 620.00225,-665.95538 13.97221,0 c 39.26062,0 70.86755,45.01681 70.86755,100.93456 l 0,152.49925 c 0,55.91775 -31.60693,100.93456 -70.86755,100.93456 l -13.97221,0 c -39.26062,0 -70.86755,-45.01681 -70.86755,-100.93456 l 0,-152.49925 c 0,-55.91775 31.60693,-100.93456 70.86755,-100.93456 z"
       id="rect3556-8-1"
       style="fill:#1a237e;fill-opacity:1"
       inkscape:connector-curvature="0" />
    <path
       d="m 633.78357,-665.96088 611.25423,0 0,129.08475 -611.25423,0 z"
       id="rect3612"
       style="fill:#1b2375;fill-opacity:1"
       inkscape:connector-curvature="0" />
    <g
       id="text3001"
       style="font-size:40px;font-style:normal;font-variant:normal;font-weight:normal;font-stretch:normal;line-height:125%;letter-spacing:0px;word-spacing:0px;fill:#000000;fill-opacity:1;stroke:none;font-family:Roboto;-inkscape-font-specification:Roboto" />
    <g
       transform="translate(11.322038,-556.11689)"
       id="flowRoot3005"
       style="font-size:40px;font-style:normal;font-variant:normal;font-weight:normal;font-stretch:normal;line-height:125%;letter-spacing:0px;word-spacing:0px;fill:#000000;fill-opacity:1;stroke:none;font-family:Roboto;-inkscape-font-specification:Roboto" />
    <g
       transform="matrix(1.3134733,0,0,1.4721341,-306.82606,-1370.7265)"
       id="flowRoot3013"
       style="font-size:601px;font-style:normal;font-variant:normal;font-weight:normal;font-stretch:normal;line-height:125%;letter-spacing:0px;word-spacing:0px;fill:#eef4d7;fill-opacity:1;stroke:none;font-family:Roboto;-inkscape-font-specification:Roboto" />
    <g
       transform="translate(-0.06779243,-796.93045)"
       id="flowRoot3021"
       style="font-size:40px;font-style:normal;font-variant:normal;font-weight:normal;font-stretch:normal;line-height:125%;letter-spacing:0px;word-spacing:0px;fill:#000000;fill-opacity:1;stroke:none;font-family:Roboto;-inkscape-font-specification:Roboto">
      <path
         d="m 454.23047,1083.0645 0,1.3183 254.88281,90.0879 0,119.5313 -378.80859,-160.8399 0,-99.7558 378.80859,-160.83989 0,119.09179 -254.88281,91.4063"
         id="path3280"
         inkscape:connector-curvature="0" />
      <path
         d="m 854.13281,1411.7754 -94.92187,0 L 993.87891,717 l 94.92189,0 -234.66799,694.7754"
         id="path3282"
         inkscape:connector-curvature="0" />
      <path
         d="m 1412.6777,1083.5039 0,-1.3184 -259.2773,-91.4062 0,-118.21289 383.2031,160.83989 0,99.7558 -383.2031,161.2793 0,-118.6523 259.2773,-92.2852"
         id="path3284"
         inkscape:connector-curvature="0" />
    </g>
    <path
       d="m 1154.1323,1235.1637 0,-57.2433 15,-5.5207 c 8.25,-3.0364 66.75,-23.9019 130,-46.3678 63.25,-22.4659 114.9981,-41.6097 114.9957,-42.5417 0,-0.932 -58.5023,-22.2658 -130,-47.4085 l -129.9957,-45.71381 0,-57.5557 0,-57.5557 90.7143,38.02954 c 49.8929,20.91625 135.0714,56.65971 189.2857,79.42991 l 98.5715,41.40036 0.7774,49.5835 0.7774,49.5836 -185.0631,77.7697 c -101.7848,42.7734 -187.3132,78.5762 -190.0632,79.5618 -4.6551,1.6685 -5,-2.1559 -5,-55.4512 z"
       transform="translate(0,-797.63782)"
       id="path3288"
       style="fill:#e3f4d7;fill-opacity:1"
       inkscape:connector-curvature="0" />
    <path
       d="m 517.77267,1212.3452 -186.35964,-79.121 -0.0689,-48.945 -0.0689,-48.945 77.85715,-33.114 c 42.82142,-18.2126 127.35714,-54.12433 187.85714,-79.80378 l 110,-46.68992 0.77506,57.11407 c 0.46271,34.09654 -0.32398,57.7729 -1.95198,58.74883 -1.49988,0.89911 -58.71794,21.5633 -127.15122,45.9205 -68.43328,24.3571 -124.04374,45.4977 -123.57878,46.9791 0.46495,1.4813 57.63132,22.6956 127.03636,47.1428 l 126.19099,44.4495 0.054,57.8571 c 0.0297,31.8215 -0.91023,57.7831 -2.0888,57.6925 -1.17857,-0.091 -86.00469,-35.7691 -188.50251,-79.2857 l 8e-5,0 z"
       transform="translate(0,-797.63782)"
       id="path3290"
       style="fill:#e3f4d7;fill-opacity:1"
       inkscape:connector-curvature="0" />
    <path
       d="m 760.41446,1411.0771 c -0.005,-0.4167 52.61182,-156.5606 116.92515,-346.9865 l 116.93334,-346.22893 46.79365,-8.6e-4 c 40.2025,-7.5e-4 46.7476,0.20399 46.467,1.45352 -0.1796,0.79992 -52.8293,156.93753 -116.99924,346.97247 l -116.67262,345.518 -46.71955,0.015 c -25.69576,0.01 -46.72324,-0.326 -46.72773,-0.7427 z"
       transform="translate(0,-797.63782)"
       id="path3294"
       style="fill:#dbe3db;fill-opacity:1"
       inkscape:connector-curvature="0" />
    <path
       d="M 627.34075,1257.613 C 565.47827,1231.5411 366.37172,1147.2753 338.41218,1135.3328 l -6.78571,-2.8985 0,-48.1895 0,-48.1895 186.78571,-79.35161 186.78572,-79.35159 0.90363,13.78846 c 1.21731,18.57497 1.43582,78.63521 0.32872,90.35448 -0.8755,9.26752 -0.9756,9.45322 -6.06127,11.24332 -22.64137,7.96954 -201.04273,72.89014 -215.6278,78.46734 -10.19858,3.8999 -21.3041,8.4994 -24.67891,10.2211 l -6.13602,3.1304 3.56819,1.8695 c 8.16438,4.2778 94.2713,35.5244 195.1733,70.8247 l 54.6127,19.1062 0.0144,51.4286 c 0.0143,48.4977 -0.56979,62.2134 -2.64103,62.0902 -0.48649,-0.029 -35.27737,-14.5475 -77.31309,-32.2634 z"
       transform="translate(0,-797.63782)"
       id="path3300"
       style="fill:#d5ffd5;fill-opacity:1"
       inkscape:connector-curvature="0" />
    <path
       d="m 1156.3692,1288.1433 c -0.6272,-0.9821 -1.3758,-25.9587 -1.6637,-55.5036 -0.4996,-51.2579 -0.4022,-53.7664 2.1273,-54.7797 1.4579,-0.584 33.1865,-11.9735 70.508,-25.31 151.6224,-54.1809 185.4102,-66.7295 185.7362,-68.9812 0.1082,-0.7482 -7.0845,-4.1413 -15.984,-7.5404 -23.1863,-8.8558 -180.0876,-64.766 -234.3951,-83.52437 l -8.2143,-2.8373 0,-56.39369 0,-56.39369 3.1046,0.98536 c 4.8801,1.54889 372.8761,156.14019 373.7404,157.00449 0.4248,0.4248 0.8263,22.7207 0.8923,49.5463 l 0.1199,48.7739 -59.2858,24.9251 c -116.6026,49.0225 -314.4471,131.8145 -314.9913,131.8145 -0.3049,0 -1.0674,-0.8035 -1.6945,-1.7857 z"
       transform="translate(0,-797.63782)"
       id="path3302"
       style="fill:#d5ffd5;fill-opacity:1"
       inkscape:connector-curvature="0" />
    <path
       d="m 762.24277,1409.5248 c 0,-1.15 44.73265,-134.1089 197.09263,-585.81871 l 35.4161,-105 45.2603,0.20515 c 24.8932,0.11283 45.517,0.46181 45.8307,0.77552 0.5944,0.59439 -4.9585,17.14124 -129.34943,385.44794 -41.79501,123.75 -82.08277,243.1607 -89.52836,265.3571 l -13.53743,40.3571 -45.59225,0 c -27.04603,0 -45.59226,-0.5386 -45.59226,-1.3241 z"
       transform="translate(0,-797.63782)"
       id="path3306"
       style="fill:#ffffff;fill-opacity:1"
       inkscape:connector-curvature="0" />
  </g>
</svg>
